<?xml version="1.0" encoding="utf-8"?>
<!-- Generator: Adobe Illustrator 16.0.0, SVG Export Plug-In . SVG Version: 6.00 Build 0)  -->
<!DOCTYPE svg PUBLIC "-//W3C//DTD SVG 1.1//EN" "http://www.w3.org/Graphics/SVG/1.1/DTD/svg11.dtd">
<svg version="1.1" id="Layer_1" xmlns="http://www.w3.org/2000/svg" xmlns:xlink="http://www.w3.org/1999/xlink" x="0px" y="0px"
	 width="315px" height="68px" viewBox="0 0 315 68" enable-background="new 0 0 315 68" xml:space="preserve">
<g>
	<path fill="#FFFFFF" d="M64.338,16.2l0.851-1.673c1.283-2.495,2.349-3.979,3.197-4.467c0.85-0.504,1.859-0.77,2.979-0.77
		c1.356,0,2.07,0.317,2.193,0.927c0.115,0.621-0.406,2.062-1.532,4.296l-1.329,2.542c6.831,0.981,13.472,1.995,19.799,3.072
		c1.958-3.922,3.212-6.73,3.738-8.445c0.598-1.993,0.269-3.83-1.016-5.513c-1.274-1.672-3.452-2.924-6.535-3.781
		c-3.064-0.83-6.799-1.257-11.228-1.257c-4.657,0.017-8.944,0.479-12.91,1.352c-3.952,0.926-7.381,2.177-10.296,3.855
		c-2.891,1.652-5.074,3.518-6.498,5.541c-0.36,0.516-0.789,1.18-1.218,1.876C51.264,14.513,57.876,15.341,64.338,16.2"/>
	<path fill="#FFFFFF" d="M49.711,51.391c4.647-0.023,8.95-0.459,12.894-1.367c3.952-0.896,7.39-2.166,10.309-3.83
		c2.901-1.696,5.05-3.521,6.474-5.536c1.426-2.001,3.4-5.435,5.874-10.294l4.223-8.271l0.058-0.09
		c-6.304-1.197-12.9-2.316-19.628-3.39L60.65,36.686c-1.464,2.831-2.592,4.659-3.382,5.396c-0.813,0.774-1.933,1.142-3.446,1.144
		c-1.434,0-2.189-0.314-2.239-0.99c-0.063-0.654,0.627-2.369,2.059-5.188l9.948-19.404c-6.526-0.989-13.143-1.906-19.717-2.811
		c-1.11,1.914-2.446,4.357-3.974,7.321l-4.226,8.274c-2.532,4.962-4.122,8.42-4.719,10.435c-0.625,1.979-0.301,3.83,0.987,5.495
		c1.262,1.701,3.44,2.951,6.51,3.773C41.544,50.971,45.288,51.391,49.711,51.391"/>
	<path fill="#FFFFFF" d="M107.981,28.422l-0.102,21.819l18.823-0.023l8.236-16.038c-9.401-4.282-24.42-8.131-41.908-11.526
		L78.868,50.297l17.92-0.026L107.981,28.422z"/>
	<path fill="#FFFFFF" d="M123.67,27.005c4.778,1.247,9.087,2.594,12.906,3.987l14.816-28.898L133.49,2.106l-11.12,21.676
		l-0.927-21.646L103.55,2.159l-9.532,18.578C105.02,22.654,115.032,24.759,123.67,27.005"/>
	<path fill="#FFFFFF" d="M136.537,30.984l-1.605,3.198c2.323,1.048,4.304,2.146,5.902,3.249c9.544,6.64,7.995,10.125,0.792,13.501
		c-12.19,5.729-51.667,8.569-51.667,8.569c3.293-3.732,6.042-7.8,6.042-7.8C73.985,60.772,47.649,64.775,38.022,66.16
		c45.885,2.488,100.409-1.505,117.372-12.934C163.805,47.579,156.948,38.424,136.537,30.984"/>
	<path fill="#FFFFFF" d="M23.492,11.514L1.5,9.792c12.961,1.389,27.618,3.076,42.458,5.053l0.68-1.09L23.492,11.514z"/>
	<path fill="#FFFFFF" d="M153.785,5.003c0.21-0.456,0.488-0.84,0.84-1.163c0.347-0.321,0.755-0.567,1.212-0.742
		c0.458-0.173,0.94-0.262,1.439-0.262c0.502,0,0.983,0.088,1.439,0.262c0.463,0.174,0.863,0.421,1.215,0.742
		c0.35,0.323,0.629,0.708,0.834,1.163c0.209,0.458,0.313,0.964,0.313,1.527c0,0.567-0.104,1.076-0.313,1.536
		c-0.205,0.452-0.484,0.84-0.834,1.167c-0.352,0.323-0.752,0.567-1.215,0.741c-0.456,0.169-0.938,0.255-1.439,0.255
		c-0.499,0-0.98-0.086-1.439-0.255c-0.457-0.173-0.865-0.418-1.212-0.741c-0.352-0.327-0.629-0.715-0.84-1.167
		c-0.206-0.459-0.309-0.969-0.309-1.536C153.476,5.967,153.579,5.461,153.785,5.003 M154.704,7.698
		c0.146,0.355,0.341,0.664,0.592,0.927c0.251,0.26,0.546,0.46,0.886,0.608c0.341,0.142,0.706,0.217,1.094,0.217
		c0.385,0,0.746-0.075,1.083-0.217c0.344-0.148,0.633-0.349,0.887-0.608c0.251-0.263,0.452-0.572,0.6-0.927
		c0.149-0.358,0.226-0.749,0.226-1.167c0-0.422-0.076-0.813-0.226-1.168c-0.147-0.35-0.349-0.652-0.6-0.913
		c-0.254-0.255-0.543-0.457-0.887-0.607c-0.337-0.14-0.698-0.213-1.083-0.213c-0.389,0-0.753,0.073-1.094,0.213
		c-0.339,0.151-0.634,0.353-0.886,0.607c-0.25,0.261-0.446,0.563-0.592,0.913c-0.146,0.355-0.219,0.746-0.219,1.168
		C154.485,6.95,154.558,7.34,154.704,7.698 M157.367,4.45c0.52,0,0.92,0.093,1.203,0.277c0.278,0.187,0.42,0.504,0.42,0.953
		c0,0.194-0.031,0.354-0.084,0.49c-0.058,0.134-0.136,0.246-0.233,0.33c-0.102,0.086-0.216,0.154-0.348,0.199
		c-0.132,0.046-0.275,0.076-0.423,0.089l1.108,1.809h-0.861l-1.011-1.77h-0.515v1.77H155.8V4.45H157.367z M157.355,6.183
		c0.241,0,0.432-0.034,0.582-0.096c0.156-0.067,0.23-0.226,0.23-0.48c0-0.11-0.028-0.198-0.074-0.264
		c-0.058-0.065-0.124-0.117-0.209-0.156c-0.08-0.034-0.173-0.058-0.276-0.072c-0.104-0.013-0.198-0.019-0.291-0.019h-0.695v1.087
		H157.355z"/>
	<path fill="#FFFFFF" d="M184.748,21.403c-0.47,0.614-1.842,2.167-2.637,2.635c-0.614,0.362-1.516,0.687-2.382,0.687h-5.489
		c-0.903,0-1.768-0.325-2.383-0.687c-0.793-0.467-2.203-2.021-2.636-2.635c-0.469-0.688-0.613-1.482-0.613-2.239V8.297
		c0-0.794,0.145-1.587,0.613-2.276c0.433-0.577,1.843-2.13,2.636-2.598c0.615-0.361,1.479-0.687,2.383-0.687h5.489
		c0.866,0,1.768,0.326,2.382,0.687c0.795,0.468,2.167,2.021,2.637,2.598c0.47,0.688,0.613,1.481,0.613,2.276v10.867
		C185.361,19.921,185.218,20.715,184.748,21.403 M180.957,8.297c-0.252-0.434-0.939-1.12-1.299-1.336h-5.311
		c-0.287,0.216-0.901,0.758-1.336,1.372v10.832c0.399,0.542,1.014,1.157,1.302,1.337h5.306c0.289-0.218,0.94-0.834,1.338-1.337
		V8.297z"/>
	<path fill="#FFFFFF" d="M203.775,13.496c-0.326,0.505-1.443,1.59-1.949,1.95c-0.796,0.576-1.769,0.83-2.709,0.83h-6.137v8.268
		h-4.406V2.881h10.543c0.904,0,2.022,0.325,2.709,0.829c0.506,0.398,1.588,1.517,1.949,1.987c0.469,0.651,0.687,1.587,0.687,2.382
		v3.069C204.462,12.017,204.244,12.81,203.775,13.496 M200.058,7.971c-0.184-0.288-0.579-0.687-0.94-0.864h-6.137v4.944h6.137
		c0.108,0,0.722-0.506,0.94-0.866V7.971z"/>
	<polygon fill="#FFFFFF" points="216.016,7.105 216.016,24.544 211.575,24.544 211.575,7.105 205.725,7.105 205.725,2.881 
		221.827,2.881 221.827,7.105 	"/>
	<rect x="224.284" y="2.881" fill="#FFFFFF" width="4.439" height="21.664"/>
	<path fill="#FFFFFF" d="M247.029,24.544V11.51c-1.228,2.637-2.526,5.271-3.754,7.87h-2.89l-3.72-7.835v12.999h-4.402V2.881h4.802
		l4.838,9.819c1.588-3.249,3.176-6.608,4.767-9.819h4.765v21.663H247.029z"/>
	<path fill="#FFFFFF" d="M270.68,21.403c-0.434,0.614-1.806,2.167-2.6,2.635c-0.651,0.362-1.517,0.687-2.384,0.687h-5.163
		c-0.9,0-1.77-0.325-2.382-0.687c-0.794-0.467-2.202-2.021-2.637-2.635c-0.469-0.688-0.613-1.482-0.613-2.239V2.881h4.406v16.247
		c0.433,0.539,1.046,1.192,1.334,1.373h4.946c0.288-0.18,0.904-0.76,1.3-1.337V2.881h4.405v16.283
		C271.293,19.921,271.147,20.715,270.68,21.403"/>
	<path fill="#FFFFFF" d="M289.276,24.544V11.51c-1.23,2.637-2.528,5.271-3.757,7.87h-2.889l-3.718-7.835v12.999h-4.405V2.881h4.801
		l4.841,9.819c1.586-3.249,3.175-6.608,4.766-9.819h4.766v21.663H289.276z"/>
	<polygon fill="#FFFFFF" points="180.019,49.682 173.014,36.936 173.014,49.682 168.608,49.682 168.608,28.018 173.121,28.018 
		180.054,40.944 180.054,28.018 184.458,28.018 184.458,49.682 	"/>
	<path fill="#FFFFFF" d="M203.633,46.539c-0.434,0.616-1.806,2.168-2.603,2.636c-0.647,0.362-1.516,0.688-2.382,0.688h-5.162
		c-0.901,0-1.771-0.326-2.382-0.688c-0.797-0.468-2.203-2.02-2.638-2.636c-0.469-0.686-0.613-1.479-0.613-2.235V28.018h4.406v16.248
		c0.433,0.541,1.046,1.191,1.335,1.372h4.944c0.29-0.181,0.903-0.76,1.302-1.334V28.018h4.405v16.286
		C204.246,45.06,204.101,45.854,203.633,46.539"/>
	<polygon fill="#FFFFFF" points="216.702,32.243 216.702,49.682 212.262,49.682 212.262,32.243 206.411,32.243 206.411,28.019 
		222.514,28.019 222.514,32.243 	"/>
	<path fill="#FFFFFF" d="M240.025,38.634c-0.325,0.504-1.441,1.588-1.949,1.949c-0.288,0.216-0.577,0.361-0.865,0.505
		c1.769,3.249,4.691,8.594,4.691,8.594h-4.909l-4.297-8.269h-3.464v8.269h-4.407V28.016h10.543c0.904,0,2.022,0.329,2.708,0.832
		c0.508,0.397,1.589,1.518,1.949,1.986c0.472,0.65,0.688,1.59,0.688,2.383v3.07C240.713,37.152,240.497,37.945,240.025,38.634
		 M236.308,33.108c-0.181-0.289-0.577-0.685-0.939-0.865h-6.136v4.946h6.136c0.108,0,0.723-0.505,0.939-0.865V33.108z"/>
	<rect x="244.285" y="28.018" fill="#FFFFFF" width="4.441" height="21.665"/>
	<polygon fill="#FFFFFF" points="261.51,32.243 261.51,49.682 257.068,49.682 257.068,32.243 251.218,32.243 251.218,28.019 
		267.321,28.019 267.321,32.243 	"/>
	<rect x="269.776" y="28.018" fill="#FFFFFF" width="4.441" height="21.665"/>
	<path fill="#FFFFFF" d="M293.823,46.539c-0.47,0.616-1.841,2.168-2.636,2.636c-0.615,0.362-1.516,0.688-2.383,0.688h-5.487
		c-0.904,0-1.769-0.326-2.384-0.688c-0.794-0.468-2.203-2.02-2.636-2.636c-0.47-0.686-0.613-1.479-0.613-2.235V33.433
		c0-0.795,0.144-1.589,0.613-2.275c0.433-0.577,1.842-2.13,2.636-2.6c0.615-0.36,1.479-0.685,2.384-0.685h5.487
		c0.867,0,1.768,0.325,2.383,0.685c0.795,0.47,2.166,2.023,2.636,2.6c0.471,0.686,0.614,1.479,0.614,2.275v10.871
		C294.438,45.06,294.294,45.854,293.823,46.539 M290.033,33.433c-0.252-0.432-0.939-1.119-1.299-1.336h-5.309
		c-0.29,0.217-0.904,0.759-1.339,1.373v10.834c0.399,0.541,1.015,1.153,1.304,1.334h5.306c0.288-0.217,0.938-0.831,1.337-1.334
		V33.433z"/>
	<polygon fill="#FFFFFF" points="309.061,49.682 302.056,36.936 302.056,49.682 297.65,49.682 297.65,28.018 302.163,28.018 
		309.096,40.944 309.096,28.018 313.5,28.018 313.5,49.682 	"/>
</g>
</svg>
